<?xml version="1.0" encoding="UTF-8"?><svg xmlns="http://www.w3.org/2000/svg" viewBox="0 0 559.02 116.04"><g id="a"/><g id="b"><g><path d="M94.21,114.41h-27.01l-28.81-43.14h-14.02v43.14H0V0H42.42c27.69,0,42.33,11.93,42.33,34.49,0,15.08-8.13,26.98-21.79,31.96l31.25,47.96ZM24.37,51.31h14.94c14.01,0,20.25-4.83,20.25-15.68s-6.25-15.68-20.25-15.68h-14.94v31.35Z"/><path d="M133.84,116.04c-25.82,0-41.85-16.35-41.85-42.66s16.1-42.66,42.02-42.66,41.2,15.37,41.2,42.17v7.53h-59.8c.65,8.91,6.62,18.28,18.44,18.28,8.48,0,14.44-4.03,16.36-11.07l.1-.37h23.87l-.12,.6c-3.53,17.65-18.56,28.18-40.21,28.18Zm-18.22-51.66h36.17c-.7-10.02-7.74-16.98-17.29-16.98-11.21,0-17.5,8.43-18.88,16.98Z"/><path d="M212.43,116.04c-17.01,0-28.44-9.79-28.44-24.36,0-13.59,9.61-22.76,27.05-25.82l27.06-4.99v-1.54c0-8.13-4.84-12.25-14.38-12.25-8.66,0-13.03,3.44-13.73,10.82l-.04,.45h-23.04l.03-.52c.82-17.48,13.89-27.11,36.79-27.11,25.21,0,36.95,10.28,36.95,32.36v51.32h-21.1v-11.55c-5.96,8.75-15.08,13.18-27.14,13.18Zm25.67-38.95l-19.53,3.81c-9.12,1.52-12.5,4.18-12.5,9.8,0,5.21,4.64,8.32,12.41,8.32,9.45,0,19.62-5.88,19.62-18.78v-3.15Z"/><path d="M357.92,114.41h-27.52l-.15-.22-23.18-33.97-10.38,10.69v23.5h-23.06V0h23.06V64.81l32.14-32.46h27.54l-31.92,32.75,33.47,49.3Z"/><path d="M389.33,115.39c-17.29,0-25.35-8.62-25.35-27.14V50.99l.16-18.14V11.93h22.9v20.43h20.44v19.14h-20.44v31.69c0,9.05,2.98,12.57,10.61,12.57,3.29,0,6.13-.51,9.23-1.13l.6-.12v19.15l-.4,.08c-4.86,1.03-11.49,1.64-17.75,1.64Z"/><path d="M456.33,116.04c-26.22,0-42.51-16.35-42.51-42.66s16.29-42.66,42.51-42.66,42.67,16.35,42.67,42.66-16.35,42.66-42.67,42.66Zm0-67.49c-13.62,0-18.47,12.83-18.47,24.83s4.85,24.83,18.47,24.83,18.63-12.83,18.63-24.83-4.89-24.83-18.63-24.83Z"/><path d="M529.92,114.41h-23.06V32.36h22.08v15.05c4.94-11.4,13.26-16.52,26.64-16.52h3.44v22.11l-.53-.03c-2.72-.16-5.53-.33-8.47-.33-12.77,0-20.1,8.04-20.1,22.05v39.72Z"/></g></g><g id="c"/><g id="d"/></svg>